<?xml version="1.0" standalone="no"?>
<!DOCTYPE svg PUBLIC "-//W3C//DTD SVG 20010904//EN"
 "http://www.w3.org/TR/2001/REC-SVG-20010904/DTD/svg10.dtd">
<svg version="1.0" xmlns="http://www.w3.org/2000/svg"
 width="1001.000000pt" height="1001.000000pt" viewBox="0 0 1001.000000 1001.000000"
 preserveAspectRatio="xMidYMid meet">

<g transform="translate(0.000000,1001.000000) scale(0.100000,-0.100000)"
fill="#000000" stroke="none">
<path d="M4775 9994 c-728 -55 -1349 -263 -1913 -643 -342 -230 -689 -578
-920 -923 -241 -359 -407 -793 -471 -1228 -13 -87 -22 -124 -31 -122 -6 1 -51
14 -99 28 -107 32 -288 43 -412 25 -460 -68 -829 -431 -904 -892 -22 -140 -22
-1978 0 -2118 91 -560 583 -944 1152 -899 83 7 132 17 294 65 13 4 18 -13 28
-99 61 -527 174 -899 340 -1116 158 -208 534 -576 906 -888 653 -546 1265
-925 1760 -1089 214 -71 323 -90 505 -89 160 1 275 20 449 76 500 160 1136
550 1796 1103 391 327 751 680 907 890 155 207 267 564 329 1047 12 95 23 174
25 176 1 2 34 -8 72 -22 149 -53 363 -72 527 -46 445 71 806 436 880 891 22
140 22 1978 0 2118 -75 461 -444 824 -904 892 -124 18 -305 7 -412 -25 -48
-14 -93 -27 -99 -28 -9 -2 -18 34 -31 117 -56 386 -184 749 -381 1088 -228
393 -615 802 -1010 1068 -509 343 -1066 547 -1707 624 -119 15 -567 27 -676
19z m270 -3056 c152 -282 427 -577 720 -772 307 -204 673 -348 1040 -410 305
-51 671 -51 958 1 48 8 90 13 93 10 10 -9 11 -818 2 -1287 -17 -956 -77 -1506
-200 -1846 -41 -115 -113 -209 -308 -405 -391 -392 -943 -834 -1400 -1121
-422 -265 -725 -389 -950 -389 -253 0 -603 156 -1109 493 -621 415 -1399 1106
-1524 1353 -47 95 -109 344 -141 570 -64 455 -76 736 -76 1745 0 510 4 878 9
883 6 6 45 3 98 -6 214 -39 553 -50 768 -27 792 87 1466 472 1862 1065 33 50
72 114 88 143 15 28 31 52 35 52 4 0 20 -24 35 -52z"/>
<path d="M3799 4617 c-30 -13 -72 -37 -93 -53 -88 -69 -144 -203 -131 -314 7
-59 48 -157 82 -196 182 -206 517 -141 609 120 22 61 19 171 -6 238 -23 63
-84 138 -143 175 -91 57 -221 70 -318 30z"/>
<path d="M5965 4627 c-246 -81 -329 -390 -155 -580 173 -189 478 -138 586 98
23 50 28 74 28 140 0 69 -4 90 -30 145 -61 130 -168 202 -308 207 -48 2 -97
-2 -121 -10z"/>
</g>
</svg>
